<svg height="492pt" viewBox="-34 0 492 492.64264" width="492pt" xmlns="http://www.w3.org/2000/svg"><path d="m212.25 8c112.429688 0 203.929688 87.308594 203.929688 194.960938 0 151.308593-203.929688 281.679687-203.929688 281.679687s-203.929688-130.371094-203.929688-281.679687c0-107.652344 91.5-194.960938 203.929688-194.960938zm148.890625 200.328125c-.003906-82.226563-66.667969-148.882813-148.894531-148.878906-82.230469.003906-148.886719 66.664062-148.886719 148.894531.003906 82.226562 66.664063 148.886719 148.890625 148.886719 82.234375 0 148.898438-66.667969 148.890625-148.902344zm0 0" fill="#00acea"/><path d="m212.25 59.441406c82.238281-.007812 148.910156 66.65625 148.910156 148.894532.003906 82.238281-66.664062 148.90625-148.902344 148.902343-82.238281 0-148.902343-66.671875-148.898437-148.910156 0-82.226563 66.664063-148.886719 148.890625-148.886719zm48.101562 234.296875c14.351563 0 25.519532-11.789062 23.960938-25.277343l-11.820312-102.742188h-23.5625v-17.109375c-.035157-9.019531-3.785157-17.625-10.367188-23.789063-6.824219-6.429687-15.867188-9.980468-25.242188-9.921874-19.539062 0-35.609374 14.960937-35.609374 33.710937v17.109375h-25.699219l-11.820313 102.742188c-1.550781 13.488281 9.609375 25.277343 23.949219 25.277343zm0 0" fill="#fedb41"/><path d="m248.929688 165.71875h23.5625l11.820312 102.742188c1.558594 13.488281-9.609375 25.277343-23.960938 25.277343h-96.210937c-14.339844 0-25.5-11.789062-23.949219-25.277343l11.820313-102.742188zm0 0" fill="#00efd1"/><path d="m248.929688 148.609375v17.109375h-71.21875v-17.109375c0-18.75 16.070312-33.710937 35.609374-33.710937 9.375-.058594 18.417969 3.492187 25.242188 9.921874 6.582031 6.164063 10.332031 14.769532 10.367188 23.789063zm0 0" fill="#fedb41"/><g fill="#083863"><path d="m212.25 0c-116.859375 0-211.929688 91.046875-211.929688 202.960938 0 35.921874 11.074219 73.539062 32.917969 111.8125 17.261719 30.242187 41.269531 61 71.363281 91.398437 51.023438 51.546875 101.230469 83.859375 103.339844 85.210937 2.628906 1.679688 5.992188 1.679688 8.617188 0 2.113281-1.351562 52.320312-33.664062 103.34375-85.210937 30.09375-30.398437 54.101562-61.152344 71.363281-91.398437 21.839844-38.273438 32.914063-75.890626 32.914063-111.8125 0-111.914063-95.070313-202.960938-211.929688-202.960938zm165.203125 306.699219c-16.535156 29-39.648437 58.609375-68.703125 87.992187-29.609375 29.710938-61.914062 56.609375-96.5 80.34375-34.582031-23.734375-66.886719-50.632812-96.5-80.34375-29.050781-29.382812-52.167969-58.988281-68.699219-87.992187-20.390625-35.777344-30.730469-70.679688-30.730469-103.738281 0-103.089844 87.894532-186.960938 195.929688-186.960938 108.039062 0 195.929688 83.871094 195.929688 186.960938 0 33.058593-10.335938 67.960937-30.726563 103.738281zm0 0"/><path d="m212.25 51.441406c-86.507812 0-156.890625 70.378906-156.890625 156.886719 0 86.511719 70.382813 156.902344 156.890625 156.902344 86.511719 0 156.890625-70.386719 156.890625-156.902344 0-86.511719-70.378906-156.886719-156.890625-156.886719zm0 297.789063c-77.6875 0-140.890625-63.207031-140.890625-140.902344 0-77.691406 63.203125-140.886719 140.890625-140.886719s140.890625 63.199219 140.890625 140.886719c0 77.691406-63.203125 140.902344-140.890625 140.902344zm0 0"/><path d="m280.4375 164.605469c-.445312-4.078125-3.84375-7.195313-7.945312-7.285157h-15.242188v-8.710937c-.070312-11.234375-4.78125-21.941406-13.015625-29.585937-8.421875-7.859376-19.539063-12.199219-31.0625-12.125-24.046875 0-43.921875 18.710937-43.921875 41.710937v8.710937h-17.238281c-4.101563.089844-7.5 3.207032-7.949219 7.285157l-11.820312 102.839843c-.941407 8.472657 1.796874 16.941407 7.519531 23.257813 6.238281 6.855469 15.109375 10.71875 24.378906 10.617187h96.210937c9.273438.121094 18.15625-3.726562 24.40625-10.578124 5.71875-6.375 8.445313-14.890626 7.5-23.402344zm-95.1875-15.996094c0-14.175781 12.617188-25.710937 27.839844-25.710937 7.40625-.066407 14.558594 2.691406 20 7.714843 5.078125 4.625 8.027344 11.136719 8.160156 18v8.707031h-56zm87.5625 131.488281c-3.214844 3.445313-7.75 5.34375-12.460938 5.222656h-96.210937c-4.699219.121094-9.230469-1.777343-12.4375-5.214843-2.714844-2.996094-4.011719-7.015625-3.566406-11.035157l11-95.75h10.113281v23.429688c0 4.417969 3.582031 8 8 8s8-3.582031 8-8v-23.429688h56v23.429688c0 4.417969 3.582031 8 8 8s8-3.582031 8-8v-23.429688h8.109375l11 95.753907c.453125 4.011719-.839844 8.027343-3.546875 11.023437zm0 0"/></g></svg>